<?xml version="1.0" encoding="UTF-8" standalone="no"?>
<!DOCTYPE svg PUBLIC "-//W3C//DTD SVG 1.1//EN"
 "http://www.w3.org/Graphics/SVG/1.1/DTD/svg11.dtd">
<!-- Generated by graphviz version 2.38.0 (20140413.2041)
 -->
<!-- Title: Boxxer2D.h Pages: 1 -->
<svg width="289pt" height="82pt"
 viewBox="0.00 0.00 289.00 82.00" xmlns="http://www.w3.org/2000/svg" xmlns:xlink="http://www.w3.org/1999/xlink">
<g id="graph0" class="graph" transform="scale(1 1) rotate(0) translate(4 78)">
<title>Boxxer2D.h</title>
<polygon fill="white" stroke="none" points="-4,4 -4,-78 285,-78 285,4 -4,4"/>
<!-- Node1 -->
<g id="node1" class="node"><title>Node1</title>
<polygon fill="#bfbfbf" stroke="black" points="56,-55.5 56,-73.5 121,-73.5 121,-55.5 56,-55.5"/>
<text text-anchor="middle" x="88.5" y="-62.3" font-family="Helvetica,sans-Serif" font-size="9.00">Boxxer2D.h</text>
</g>
<!-- Node2 -->
<g id="node2" class="node"><title>Node2</title>
<polygon fill="white" stroke="#bfbfbf" points="0,-0.5 0,-18.5 43,-18.5 43,-0.5 0,-0.5"/>
<text text-anchor="middle" x="21.5" y="-7.3" font-family="Helvetica,sans-Serif" font-size="9.00">cstdint</text>
</g>
<!-- Node1&#45;&gt;Node2 -->
<g id="edge1" class="edge"><title>Node1&#45;&gt;Node2</title>
<path fill="none" stroke="midnightblue" d="M78.3241,-55.4504C68.0923,-47.3566 52.0977,-34.7042 39.6812,-24.8822"/>
<polygon fill="midnightblue" stroke="midnightblue" points="41.7859,-22.0844 31.7716,-18.6253 37.4431,-27.5744 41.7859,-22.0844"/>
</g>
<!-- Node3 -->
<g id="node3" class="node"><title>Node3</title>
<polygon fill="white" stroke="#bfbfbf" points="61,-0.5 61,-18.5 116,-18.5 116,-0.5 61,-0.5"/>
<text text-anchor="middle" x="88.5" y="-7.3" font-family="Helvetica,sans-Serif" font-size="9.00">armadillo</text>
</g>
<!-- Node1&#45;&gt;Node3 -->
<g id="edge2" class="edge"><title>Node1&#45;&gt;Node3</title>
<path fill="none" stroke="midnightblue" d="M88.5,-55.2188C88.5,-48.1769 88.5,-37.8083 88.5,-28.8277"/>
<polygon fill="midnightblue" stroke="midnightblue" points="92.0001,-28.5495 88.5,-18.5496 85.0001,-28.5496 92.0001,-28.5495"/>
</g>
<!-- Node4 -->
<g id="node4" class="node"><title>Node4</title>
<polygon fill="white" stroke="#bfbfbf" points="134,-0.5 134,-18.5 281,-18.5 281,-0.5 134,-0.5"/>
<text text-anchor="middle" x="207.5" y="-7.3" font-family="Helvetica,sans-Serif" font-size="9.00">Boxxer/Hypercube/Hypercube.h</text>
</g>
<!-- Node1&#45;&gt;Node4 -->
<g id="edge3" class="edge"><title>Node1&#45;&gt;Node4</title>
<path fill="none" stroke="midnightblue" d="M106.574,-55.4504C126.057,-46.7729 157.305,-32.8556 179.874,-22.8041"/>
<polygon fill="midnightblue" stroke="midnightblue" points="181.545,-25.8911 189.256,-18.6253 178.697,-19.4966 181.545,-25.8911"/>
</g>
</g>
</svg>
