<?xml version="1.0" encoding="UTF-8" standalone="no"?>
<!DOCTYPE svg PUBLIC "-//W3C//DTD SVG 1.1//EN"
 "http://www.w3.org/Graphics/SVG/1.1/DTD/svg11.dtd">
<!-- Generated by graphviz version 2.38.0 (20140413.2041)
 -->
<!-- Title: boxxer::GaussFIRFilter&lt; FloatT, IdxT &gt; Pages: 1 -->
<svg width="261pt" height="272pt"
 viewBox="0.00 0.00 261.00 272.00" xmlns="http://www.w3.org/2000/svg" xmlns:xlink="http://www.w3.org/1999/xlink">
<g id="graph0" class="graph" transform="scale(1 1) rotate(0) translate(4 268)">
<title>boxxer::GaussFIRFilter&lt; FloatT, IdxT &gt;</title>
<polygon fill="white" stroke="none" points="-4,4 -4,-268 257,-268 257,4 -4,4"/>
<!-- Node1 -->
<g id="node1" class="node"><title>Node1</title>
<polygon fill="#bfbfbf" stroke="black" points="0,-117.5 0,-145.5 110,-145.5 110,-117.5 0,-117.5"/>
<text text-anchor="start" x="8" y="-134.3" font-family="Helvetica,sans-Serif" font-size="9.00">boxxer::GaussFIRFilter</text>
<text text-anchor="middle" x="55" y="-124.3" font-family="Helvetica,sans-Serif" font-size="9.00">&lt; FloatT, IdxT &gt;</text>
</g>
<!-- Node2 -->
<g id="node2" class="node"><title>Node2</title>
<g id="a_node2"><a xlink:href="classboxxer_1_1DoGFilter2D.html" target="_top" xlink:title="boxxer::DoGFilter2D\l\&lt; FloatT, IdxT \&gt;">
<polygon fill="white" stroke="black" points="149.5,-235.5 149.5,-263.5 249.5,-263.5 249.5,-235.5 149.5,-235.5"/>
<text text-anchor="start" x="157.5" y="-252.3" font-family="Helvetica,sans-Serif" font-size="9.00">boxxer::DoGFilter2D</text>
<text text-anchor="middle" x="199.5" y="-242.3" font-family="Helvetica,sans-Serif" font-size="9.00">&lt; FloatT, IdxT &gt;</text>
</a>
</g>
</g>
<!-- Node1&#45;&gt;Node2 -->
<g id="edge1" class="edge"><title>Node1&#45;&gt;Node2</title>
<path fill="none" stroke="midnightblue" d="M72.7729,-153.801C89.4671,-174.776 116.758,-205.946 146,-226.5 150.722,-229.819 155.999,-232.815 161.337,-235.463"/>
<polygon fill="midnightblue" stroke="midnightblue" points="75.412,-151.494 66.4987,-145.767 69.8948,-155.802 75.412,-151.494"/>
</g>
<!-- Node3 -->
<g id="node3" class="node"><title>Node3</title>
<g id="a_node3"><a xlink:href="classboxxer_1_1DoGFilter3D.html" target="_top" xlink:title="boxxer::DoGFilter3D\l\&lt; FloatT, IdxT \&gt;">
<polygon fill="white" stroke="black" points="149.5,-188.5 149.5,-216.5 249.5,-216.5 249.5,-188.5 149.5,-188.5"/>
<text text-anchor="start" x="157.5" y="-205.3" font-family="Helvetica,sans-Serif" font-size="9.00">boxxer::DoGFilter3D</text>
<text text-anchor="middle" x="199.5" y="-195.3" font-family="Helvetica,sans-Serif" font-size="9.00">&lt; FloatT, IdxT &gt;</text>
</a>
</g>
</g>
<!-- Node1&#45;&gt;Node3 -->
<g id="edge2" class="edge"><title>Node1&#45;&gt;Node3</title>
<path fill="none" stroke="midnightblue" d="M90.1775,-150.527C106.858,-159.606 127.312,-170.44 146,-179.5 152.178,-182.495 158.84,-185.547 165.276,-188.407"/>
<polygon fill="midnightblue" stroke="midnightblue" points="91.7866,-147.417 81.3344,-145.685 88.4249,-153.557 91.7866,-147.417"/>
</g>
<!-- Node4 -->
<g id="node4" class="node"><title>Node4</title>
<g id="a_node4"><a xlink:href="classboxxer_1_1GaussFilter2D.html" target="_top" xlink:title="boxxer::GaussFilter2D\l\&lt; FloatT, IdxT \&gt;">
<polygon fill="white" stroke="black" points="146,-141.5 146,-169.5 253,-169.5 253,-141.5 146,-141.5"/>
<text text-anchor="start" x="154" y="-158.3" font-family="Helvetica,sans-Serif" font-size="9.00">boxxer::GaussFilter2D</text>
<text text-anchor="middle" x="199.5" y="-148.3" font-family="Helvetica,sans-Serif" font-size="9.00">&lt; FloatT, IdxT &gt;</text>
</a>
</g>
</g>
<!-- Node1&#45;&gt;Node4 -->
<g id="edge3" class="edge"><title>Node1&#45;&gt;Node4</title>
<path fill="none" stroke="midnightblue" d="M120.224,-142.317C128.774,-143.757 137.46,-145.22 145.783,-146.621"/>
<polygon fill="midnightblue" stroke="midnightblue" points="120.722,-138.851 110.28,-140.642 119.559,-145.754 120.722,-138.851"/>
</g>
<!-- Node5 -->
<g id="node5" class="node"><title>Node5</title>
<g id="a_node5"><a xlink:href="classboxxer_1_1GaussFilter3D.html" target="_top" xlink:title="boxxer::GaussFilter3D\l\&lt; FloatT, IdxT \&gt;">
<polygon fill="white" stroke="black" points="146,-94.5 146,-122.5 253,-122.5 253,-94.5 146,-94.5"/>
<text text-anchor="start" x="154" y="-111.3" font-family="Helvetica,sans-Serif" font-size="9.00">boxxer::GaussFilter3D</text>
<text text-anchor="middle" x="199.5" y="-101.3" font-family="Helvetica,sans-Serif" font-size="9.00">&lt; FloatT, IdxT &gt;</text>
</a>
</g>
</g>
<!-- Node1&#45;&gt;Node5 -->
<g id="edge4" class="edge"><title>Node1&#45;&gt;Node5</title>
<path fill="none" stroke="midnightblue" d="M120.224,-121.134C128.774,-119.754 137.46,-118.352 145.783,-117.009"/>
<polygon fill="midnightblue" stroke="midnightblue" points="119.594,-117.69 110.28,-122.739 120.71,-124.601 119.594,-117.69"/>
</g>
<!-- Node6 -->
<g id="node6" class="node"><title>Node6</title>
<g id="a_node6"><a xlink:href="classboxxer_1_1LoGFilter2D.html" target="_top" xlink:title="boxxer::LoGFilter2D\l\&lt; FloatT, IdxT \&gt;">
<polygon fill="white" stroke="black" points="150.5,-47.5 150.5,-75.5 248.5,-75.5 248.5,-47.5 150.5,-47.5"/>
<text text-anchor="start" x="158.5" y="-64.3" font-family="Helvetica,sans-Serif" font-size="9.00">boxxer::LoGFilter2D</text>
<text text-anchor="middle" x="199.5" y="-54.3" font-family="Helvetica,sans-Serif" font-size="9.00">&lt; FloatT, IdxT &gt;</text>
</a>
</g>
</g>
<!-- Node1&#45;&gt;Node6 -->
<g id="edge5" class="edge"><title>Node1&#45;&gt;Node6</title>
<path fill="none" stroke="midnightblue" d="M92.2301,-112.526C108.575,-104.085 128.174,-94.1249 146,-85.5 152.766,-82.2263 160.074,-78.8109 167.025,-75.6177"/>
<polygon fill="midnightblue" stroke="midnightblue" points="90.2882,-109.591 83.0204,-117.3 93.5094,-115.806 90.2882,-109.591"/>
</g>
<!-- Node7 -->
<g id="node7" class="node"><title>Node7</title>
<g id="a_node7"><a xlink:href="classboxxer_1_1LoGFilter3D.html" target="_top" xlink:title="boxxer::LoGFilter3D\l\&lt; FloatT, IdxT \&gt;">
<polygon fill="white" stroke="black" points="150.5,-0.5 150.5,-28.5 248.5,-28.5 248.5,-0.5 150.5,-0.5"/>
<text text-anchor="start" x="158.5" y="-17.3" font-family="Helvetica,sans-Serif" font-size="9.00">boxxer::LoGFilter3D</text>
<text text-anchor="middle" x="199.5" y="-7.3" font-family="Helvetica,sans-Serif" font-size="9.00">&lt; FloatT, IdxT &gt;</text>
</a>
</g>
</g>
<!-- Node1&#45;&gt;Node7 -->
<g id="edge6" class="edge"><title>Node1&#45;&gt;Node7</title>
<path fill="none" stroke="midnightblue" d="M73.2234,-109.45C90.063,-89.0118 117.296,-58.7887 146,-38.5 151.238,-34.7979 157.138,-31.4469 163.042,-28.5027"/>
<polygon fill="midnightblue" stroke="midnightblue" points="70.4493,-107.314 66.8782,-117.289 75.8903,-111.719 70.4493,-107.314"/>
</g>
</g>
</svg>
