<?xml version="1.0" encoding="UTF-8" standalone="no"?>
<!DOCTYPE svg PUBLIC "-//W3C//DTD SVG 1.1//EN"
 "http://www.w3.org/Graphics/SVG/1.1/DTD/svg11.dtd">
<!-- Generated by graphviz version 2.38.0 (20140413.2041)
 -->
<!-- Title: boxxer::Boxxer2D::enumerateImageMaxima Pages: 1 -->
<svg width="298pt" height="37pt"
 viewBox="0.00 0.00 298.00 37.00" xmlns="http://www.w3.org/2000/svg" xmlns:xlink="http://www.w3.org/1999/xlink">
<g id="graph0" class="graph" transform="scale(1 1) rotate(0) translate(4 33)">
<title>boxxer::Boxxer2D::enumerateImageMaxima</title>
<polygon fill="white" stroke="none" points="-4,4 -4,-33 294,-33 294,4 -4,4"/>
<!-- Node1 -->
<g id="node1" class="node"><title>Node1</title>
<polygon fill="#bfbfbf" stroke="black" points="0,-0.5 0,-28.5 138,-28.5 138,-0.5 0,-0.5"/>
<text text-anchor="start" x="8" y="-17.3" font-family="Helvetica,sans-Serif" font-size="9.00">boxxer::Boxxer2D::enumerate</text>
<text text-anchor="middle" x="69" y="-7.3" font-family="Helvetica,sans-Serif" font-size="9.00">ImageMaxima</text>
</g>
<!-- Node2 -->
<g id="node2" class="node"><title>Node2</title>
<g id="a_node2"><a xlink:href="classboxxer_1_1Boxxer2D.html#a5c2ee267ed5ac1c61d3b7a9c935e0922" target="_top" xlink:title="boxxer::Boxxer2D::make\l_scaled_image_stack">
<polygon fill="white" stroke="black" points="174,-0.5 174,-28.5 290,-28.5 290,-0.5 174,-0.5"/>
<text text-anchor="start" x="182" y="-17.3" font-family="Helvetica,sans-Serif" font-size="9.00">boxxer::Boxxer2D::make</text>
<text text-anchor="middle" x="232" y="-7.3" font-family="Helvetica,sans-Serif" font-size="9.00">_scaled_image_stack</text>
</a>
</g>
</g>
<!-- Node1&#45;&gt;Node2 -->
<g id="edge1" class="edge"><title>Node1&#45;&gt;Node2</title>
<path fill="none" stroke="midnightblue" d="M148.32,-14.5C156.906,-14.5 165.526,-14.5 173.788,-14.5"/>
<polygon fill="midnightblue" stroke="midnightblue" points="148.279,-11.0001 138.278,-14.5 148.278,-18.0001 148.279,-11.0001"/>
</g>
</g>
</svg>
