<?xml version="1.0" encoding="UTF-8" standalone="no"?>
<!DOCTYPE svg PUBLIC "-//W3C//DTD SVG 1.1//EN"
 "http://www.w3.org/Graphics/SVG/1.1/DTD/svg11.dtd">
<!-- Generated by graphviz version 2.38.0 (20140413.2041)
 -->
<!-- Title: boxxer::Boxxer3D::make_scaled_image Pages: 1 -->
<svg width="310pt" height="195pt"
 viewBox="0.00 0.00 310.00 195.00" xmlns="http://www.w3.org/2000/svg" xmlns:xlink="http://www.w3.org/1999/xlink">
<g id="graph0" class="graph" transform="scale(1 1) rotate(0) translate(4 191)">
<title>boxxer::Boxxer3D::make_scaled_image</title>
<polygon fill="white" stroke="none" points="-4,4 -4,-191 306,-191 306,4 -4,4"/>
<!-- Node1 -->
<g id="node1" class="node"><title>Node1</title>
<polygon fill="#bfbfbf" stroke="black" points="0,-79.5 0,-107.5 116,-107.5 116,-79.5 0,-79.5"/>
<text text-anchor="start" x="8" y="-96.3" font-family="Helvetica,sans-Serif" font-size="9.00">boxxer::Boxxer3D::make</text>
<text text-anchor="middle" x="58" y="-86.3" font-family="Helvetica,sans-Serif" font-size="9.00">_scaled_image</text>
</g>
<!-- Node2 -->
<g id="node2" class="node"><title>Node2</title>
<g id="a_node2"><a xlink:href="classboxxer_1_1Boxxer3D.html#a44cf5445f8991f735207651fcb6d5962" target="_top" xlink:title="boxxer::Boxxer3D::checkMaxima">
<polygon fill="white" stroke="black" points="152,-168.5 152,-186.5 302,-186.5 302,-168.5 152,-168.5"/>
<text text-anchor="middle" x="227" y="-175.3" font-family="Helvetica,sans-Serif" font-size="9.00">boxxer::Boxxer3D::checkMaxima</text>
</a>
</g>
</g>
<!-- Node1&#45;&gt;Node2 -->
<g id="edge1" class="edge"><title>Node1&#45;&gt;Node2</title>
<path fill="none" stroke="midnightblue" d="M74.9539,-107.725C92.5994,-122.729 122.458,-146.026 152,-159.5 156.962,-161.763 162.247,-163.764 167.621,-165.529"/>
<polygon fill="midnightblue" stroke="midnightblue" points="166.756,-168.924 177.34,-168.456 168.774,-162.221 166.756,-168.924"/>
</g>
<!-- Node3 -->
<g id="node3" class="node"><title>Node3</title>
<g id="a_node3"><a xlink:href="classboxxer_1_1Boxxer3D.html#a2fbe5c1f5d3b705ddcca7d13a92f9283" target="_top" xlink:title="boxxer::Boxxer3D::enumerate\lImageMaxima">
<polygon fill="white" stroke="black" points="158,-121.5 158,-149.5 296,-149.5 296,-121.5 158,-121.5"/>
<text text-anchor="start" x="166" y="-138.3" font-family="Helvetica,sans-Serif" font-size="9.00">boxxer::Boxxer3D::enumerate</text>
<text text-anchor="middle" x="227" y="-128.3" font-family="Helvetica,sans-Serif" font-size="9.00">ImageMaxima</text>
</a>
</g>
</g>
<!-- Node1&#45;&gt;Node3 -->
<g id="edge2" class="edge"><title>Node1&#45;&gt;Node3</title>
<path fill="none" stroke="midnightblue" d="M115.073,-107.602C129.609,-111.258 145.392,-115.227 160.37,-118.994"/>
<polygon fill="midnightblue" stroke="midnightblue" points="159.523,-122.39 170.075,-121.435 161.231,-115.602 159.523,-122.39"/>
</g>
<!-- Node4 -->
<g id="node4" class="node"><title>Node4</title>
<g id="a_node4"><a xlink:href="classboxxer_1_1Boxxer3D.html#a523dff6ee90ba9f6e6bb0e8e4258a905" target="_top" xlink:title="boxxer::Boxxer3D::filterDoG">
<polygon fill="white" stroke="black" points="162,-84.5 162,-102.5 292,-102.5 292,-84.5 162,-84.5"/>
<text text-anchor="middle" x="227" y="-91.3" font-family="Helvetica,sans-Serif" font-size="9.00">boxxer::Boxxer3D::filterDoG</text>
</a>
</g>
</g>
<!-- Node1&#45;&gt;Node4 -->
<g id="edge3" class="edge"><title>Node1&#45;&gt;Node4</title>
<path fill="none" stroke="midnightblue" d="M116.005,-93.5C127.521,-93.5 139.787,-93.5 151.793,-93.5"/>
<polygon fill="midnightblue" stroke="midnightblue" points="151.795,-97.0001 161.795,-93.5 151.795,-90.0001 151.795,-97.0001"/>
</g>
<!-- Node5 -->
<g id="node5" class="node"><title>Node5</title>
<g id="a_node5"><a xlink:href="classboxxer_1_1Boxxer3D.html#a210c289db79c6db6596df92d77052f47" target="_top" xlink:title="boxxer::Boxxer3D::filter\lGauss">
<polygon fill="white" stroke="black" points="171.5,-37.5 171.5,-65.5 282.5,-65.5 282.5,-37.5 171.5,-37.5"/>
<text text-anchor="start" x="179.5" y="-54.3" font-family="Helvetica,sans-Serif" font-size="9.00">boxxer::Boxxer3D::filter</text>
<text text-anchor="middle" x="227" y="-44.3" font-family="Helvetica,sans-Serif" font-size="9.00">Gauss</text>
</a>
</g>
</g>
<!-- Node1&#45;&gt;Node5 -->
<g id="edge4" class="edge"><title>Node1&#45;&gt;Node5</title>
<path fill="none" stroke="midnightblue" d="M115.073,-79.3978C129.997,-75.6444 146.236,-71.5603 161.569,-67.7041"/>
<polygon fill="midnightblue" stroke="midnightblue" points="162.647,-71.0422 171.491,-65.2088 160.94,-64.2536 162.647,-71.0422"/>
</g>
<!-- Node6 -->
<g id="node6" class="node"><title>Node6</title>
<g id="a_node6"><a xlink:href="classboxxer_1_1Boxxer3D.html#ad242333de1472fea719db9958dfe6f46" target="_top" xlink:title="boxxer::Boxxer3D::filterLoG">
<polygon fill="white" stroke="black" points="163,-0.5 163,-18.5 291,-18.5 291,-0.5 163,-0.5"/>
<text text-anchor="middle" x="227" y="-7.3" font-family="Helvetica,sans-Serif" font-size="9.00">boxxer::Boxxer3D::filterLoG</text>
</a>
</g>
</g>
<!-- Node1&#45;&gt;Node6 -->
<g id="edge5" class="edge"><title>Node1&#45;&gt;Node6</title>
<path fill="none" stroke="midnightblue" d="M75.3514,-79.305C93.0981,-64.591 122.823,-41.9046 152,-28.5 157.774,-25.8473 163.978,-23.522 170.25,-21.4945"/>
<polygon fill="midnightblue" stroke="midnightblue" points="171.529,-24.7655 180.108,-18.5494 169.525,-18.0584 171.529,-24.7655"/>
</g>
</g>
</svg>
