<?xml version="1.0" encoding="UTF-8" standalone="no"?>
<!DOCTYPE svg PUBLIC "-//W3C//DTD SVG 1.1//EN"
 "http://www.w3.org/Graphics/SVG/1.1/DTD/svg11.dtd">
<!-- Generated by graphviz version 2.38.0 (20140413.2041)
 -->
<!-- Title: boxxer::Boxxer2D::checkMaxima Pages: 1 -->
<svg width="310pt" height="37pt"
 viewBox="0.00 0.00 310.00 37.00" xmlns="http://www.w3.org/2000/svg" xmlns:xlink="http://www.w3.org/1999/xlink">
<g id="graph0" class="graph" transform="scale(1 1) rotate(0) translate(4 33)">
<title>boxxer::Boxxer2D::checkMaxima</title>
<polygon fill="white" stroke="none" points="-4,4 -4,-33 306,-33 306,4 -4,4"/>
<!-- Node1 -->
<g id="node1" class="node"><title>Node1</title>
<polygon fill="#bfbfbf" stroke="black" points="-2.84217e-14,-5.5 -2.84217e-14,-23.5 150,-23.5 150,-5.5 -2.84217e-14,-5.5"/>
<text text-anchor="middle" x="75" y="-12.3" font-family="Helvetica,sans-Serif" font-size="9.00">boxxer::Boxxer2D::checkMaxima</text>
</g>
<!-- Node2 -->
<g id="node2" class="node"><title>Node2</title>
<g id="a_node2"><a xlink:href="classboxxer_1_1Boxxer2D.html#a5c2ee267ed5ac1c61d3b7a9c935e0922" target="_top" xlink:title="boxxer::Boxxer2D::make\l_scaled_image_stack">
<polygon fill="white" stroke="black" points="186,-0.5 186,-28.5 302,-28.5 302,-0.5 186,-0.5"/>
<text text-anchor="start" x="194" y="-17.3" font-family="Helvetica,sans-Serif" font-size="9.00">boxxer::Boxxer2D::make</text>
<text text-anchor="middle" x="244" y="-7.3" font-family="Helvetica,sans-Serif" font-size="9.00">_scaled_image_stack</text>
</a>
</g>
</g>
<!-- Node1&#45;&gt;Node2 -->
<g id="edge1" class="edge"><title>Node1&#45;&gt;Node2</title>
<path fill="none" stroke="midnightblue" d="M160.33,-14.5C168.955,-14.5 177.568,-14.5 185.801,-14.5"/>
<polygon fill="midnightblue" stroke="midnightblue" points="160.221,-11.0001 150.221,-14.5 160.221,-18.0001 160.221,-11.0001"/>
</g>
</g>
</svg>
