<?xml version="1.0" encoding="UTF-8" standalone="no"?>
<!DOCTYPE svg PUBLIC "-//W3C//DTD SVG 1.1//EN"
 "http://www.w3.org/Graphics/SVG/1.1/DTD/svg11.dtd">
<!-- Generated by graphviz version 2.38.0 (20140413.2041)
 -->
<!-- Title: boxxer::Boxxer3D::filterGauss Pages: 1 -->
<svg width="271pt" height="37pt"
 viewBox="0.00 0.00 271.00 37.00" xmlns="http://www.w3.org/2000/svg" xmlns:xlink="http://www.w3.org/1999/xlink">
<g id="graph0" class="graph" transform="scale(1 1) rotate(0) translate(4 33)">
<title>boxxer::Boxxer3D::filterGauss</title>
<polygon fill="white" stroke="none" points="-4,4 -4,-33 267,-33 267,4 -4,4"/>
<!-- Node1 -->
<g id="node1" class="node"><title>Node1</title>
<polygon fill="#bfbfbf" stroke="black" points="0,-0.5 0,-28.5 111,-28.5 111,-0.5 0,-0.5"/>
<text text-anchor="start" x="8" y="-17.3" font-family="Helvetica,sans-Serif" font-size="9.00">boxxer::Boxxer3D::filter</text>
<text text-anchor="middle" x="55.5" y="-7.3" font-family="Helvetica,sans-Serif" font-size="9.00">Gauss</text>
</g>
<!-- Node2 -->
<g id="node2" class="node"><title>Node2</title>
<g id="a_node2"><a xlink:href="classboxxer_1_1Boxxer3D.html#a3bc9609e6bdb4a6aac10aea313b70b12" target="_top" xlink:title="boxxer::Boxxer3D::make\l_scaled_image">
<polygon fill="white" stroke="black" points="147,-0.5 147,-28.5 263,-28.5 263,-0.5 147,-0.5"/>
<text text-anchor="start" x="155" y="-17.3" font-family="Helvetica,sans-Serif" font-size="9.00">boxxer::Boxxer3D::make</text>
<text text-anchor="middle" x="205" y="-7.3" font-family="Helvetica,sans-Serif" font-size="9.00">_scaled_image</text>
</a>
</g>
</g>
<!-- Node1&#45;&gt;Node2 -->
<g id="edge1" class="edge"><title>Node1&#45;&gt;Node2</title>
<path fill="none" stroke="midnightblue" d="M121.252,-14.5C129.744,-14.5 138.398,-14.5 146.753,-14.5"/>
<polygon fill="midnightblue" stroke="midnightblue" points="121.005,-11.0001 111.004,-14.5 121.004,-18.0001 121.005,-11.0001"/>
</g>
</g>
</svg>
