<?xml version="1.0" encoding="UTF-8" standalone="no"?>
<!DOCTYPE svg PUBLIC "-//W3C//DTD SVG 1.1//EN"
 "http://www.w3.org/Graphics/SVG/1.1/DTD/svg11.dtd">
<!-- Generated by graphviz version 2.38.0 (20140413.2041)
 -->
<!-- Title: GaussFilter.h Pages: 1 -->
<svg width="193pt" height="82pt"
 viewBox="0.00 0.00 193.00 82.00" xmlns="http://www.w3.org/2000/svg" xmlns:xlink="http://www.w3.org/1999/xlink">
<g id="graph0" class="graph" transform="scale(1 1) rotate(0) translate(4 78)">
<title>GaussFilter.h</title>
<polygon fill="white" stroke="none" points="-4,4 -4,-78 189,-78 189,4 -4,4"/>
<!-- Node1 -->
<g id="node1" class="node"><title>Node1</title>
<polygon fill="#bfbfbf" stroke="black" points="51,-55.5 51,-73.5 122,-73.5 122,-55.5 51,-55.5"/>
<text text-anchor="middle" x="86.5" y="-62.3" font-family="Helvetica,sans-Serif" font-size="9.00">GaussFilter.h</text>
</g>
<!-- Node2 -->
<g id="node2" class="node"><title>Node2</title>
<polygon fill="white" stroke="#bfbfbf" points="0,-0.5 0,-18.5 43,-18.5 43,-0.5 0,-0.5"/>
<text text-anchor="middle" x="21.5" y="-7.3" font-family="Helvetica,sans-Serif" font-size="9.00">cstdint</text>
</g>
<!-- Node1&#45;&gt;Node2 -->
<g id="edge1" class="edge"><title>Node1&#45;&gt;Node2</title>
<path fill="none" stroke="midnightblue" d="M76.6279,-55.4504C66.797,-47.4345 51.4822,-34.9471 39.4869,-25.1663"/>
<polygon fill="midnightblue" stroke="midnightblue" points="41.427,-22.2322 31.465,-18.6253 37.0034,-27.6573 41.427,-22.2322"/>
</g>
<!-- Node3 -->
<g id="node3" class="node"><title>Node3</title>
<polygon fill="white" stroke="#bfbfbf" points="61.5,-0.5 61.5,-18.5 111.5,-18.5 111.5,-0.5 61.5,-0.5"/>
<text text-anchor="middle" x="86.5" y="-7.3" font-family="Helvetica,sans-Serif" font-size="9.00">ostream</text>
</g>
<!-- Node1&#45;&gt;Node3 -->
<g id="edge2" class="edge"><title>Node1&#45;&gt;Node3</title>
<path fill="none" stroke="midnightblue" d="M86.5,-55.2188C86.5,-48.1769 86.5,-37.8083 86.5,-28.8277"/>
<polygon fill="midnightblue" stroke="midnightblue" points="90.0001,-28.5495 86.5,-18.5496 83.0001,-28.5496 90.0001,-28.5495"/>
</g>
<!-- Node4 -->
<g id="node4" class="node"><title>Node4</title>
<polygon fill="white" stroke="#bfbfbf" points="130,-0.5 130,-18.5 185,-18.5 185,-0.5 130,-0.5"/>
<text text-anchor="middle" x="157.5" y="-7.3" font-family="Helvetica,sans-Serif" font-size="9.00">armadillo</text>
</g>
<!-- Node1&#45;&gt;Node4 -->
<g id="edge3" class="edge"><title>Node1&#45;&gt;Node4</title>
<path fill="none" stroke="midnightblue" d="M97.2834,-55.4504C108.126,-47.3566 125.076,-34.7042 138.233,-24.8822"/>
<polygon fill="midnightblue" stroke="midnightblue" points="140.695,-27.412 146.615,-18.6253 136.508,-21.8025 140.695,-27.412"/>
</g>
</g>
</svg>
