<?xml version="1.0" encoding="UTF-8" standalone="no"?>
<!DOCTYPE svg PUBLIC "-//W3C//DTD SVG 1.1//EN"
 "http://www.w3.org/Graphics/SVG/1.1/DTD/svg11.dtd">
<!-- Generated by graphviz version 2.38.0 (20140413.2041)
 -->
<!-- Title: Graphical Class Hierarchy Pages: 1 -->
<svg width="248pt" height="138pt"
 viewBox="0.00 0.00 248.00 138.00" xmlns="http://www.w3.org/2000/svg" xmlns:xlink="http://www.w3.org/1999/xlink">
<g id="graph0" class="graph" transform="scale(1 1) rotate(0) translate(4 134)">
<title>Graphical Class Hierarchy</title>
<polygon fill="white" stroke="none" points="-4,4 -4,-134 244,-134 244,4 -4,4"/>
<!-- Node1 -->
<g id="node1" class="node"><title>Node1</title>
<polygon fill="white" stroke="#bfbfbf" points="0,-55.5 0,-73.5 65,-73.5 65,-55.5 0,-55.5"/>
<text text-anchor="middle" x="32.5" y="-62.3" font-family="Helvetica,sans-Serif" font-size="9.00">BoxxerError</text>
</g>
<!-- Node2 -->
<g id="node2" class="node"><title>Node2</title>
<g id="a_node2"><a xlink:href="structboxxer_1_1LogicalError.html" target="_top" xlink:title="Internal logical error. Bad logic or broken promises. ">
<polygon fill="white" stroke="black" points="121,-111.5 121,-129.5 220,-129.5 220,-111.5 121,-111.5"/>
<text text-anchor="middle" x="170.5" y="-118.3" font-family="Helvetica,sans-Serif" font-size="9.00">boxxer::LogicalError</text>
</a>
</g>
</g>
<!-- Node1&#45;&gt;Node2 -->
<g id="edge1" class="edge"><title>Node1&#45;&gt;Node2</title>
<path fill="none" stroke="midnightblue" d="M55.7887,-78.9615C68.6091,-86.7841 85.2529,-96.1216 101,-102.5 109.548,-105.962 118.966,-108.941 128.012,-111.422"/>
<polygon fill="midnightblue" stroke="midnightblue" points="57.5328,-75.9243 47.1967,-73.5972 53.8256,-81.8621 57.5328,-75.9243"/>
</g>
<!-- Node3 -->
<g id="node3" class="node"><title>Node3</title>
<g id="a_node3"><a xlink:href="structboxxer_1_1NumericalError.html" target="_top" xlink:title="Internal numerical error. ">
<polygon fill="white" stroke="black" points="115,-74.5 115,-92.5 226,-92.5 226,-74.5 115,-74.5"/>
<text text-anchor="middle" x="170.5" y="-81.3" font-family="Helvetica,sans-Serif" font-size="9.00">boxxer::NumericalError</text>
</a>
</g>
</g>
<!-- Node1&#45;&gt;Node3 -->
<g id="edge2" class="edge"><title>Node1&#45;&gt;Node3</title>
<path fill="none" stroke="midnightblue" d="M75.2005,-70.3258C87.7433,-72.0781 101.697,-74.0276 114.943,-75.878"/>
<polygon fill="midnightblue" stroke="midnightblue" points="75.4311,-66.8241 65.043,-68.9067 74.4625,-73.7568 75.4311,-66.8241"/>
</g>
<!-- Node4 -->
<g id="node4" class="node"><title>Node4</title>
<g id="a_node4"><a xlink:href="structboxxer_1_1ParameterShapeError.html" target="_top" xlink:title="Parameters are the incorrect shape, size or number of dimensions. ">
<polygon fill="white" stroke="black" points="101,-37.5 101,-55.5 240,-55.5 240,-37.5 101,-37.5"/>
<text text-anchor="middle" x="170.5" y="-44.3" font-family="Helvetica,sans-Serif" font-size="9.00">boxxer::ParameterShapeError</text>
</a>
</g>
</g>
<!-- Node1&#45;&gt;Node4 -->
<g id="edge3" class="edge"><title>Node1&#45;&gt;Node4</title>
<path fill="none" stroke="midnightblue" d="M75.1806,-58.9835C83.4818,-57.8848 92.4017,-56.7042 101.326,-55.5231"/>
<polygon fill="midnightblue" stroke="midnightblue" points="74.4973,-55.5433 65.043,-60.3252 75.4158,-62.4828 74.4973,-55.5433"/>
</g>
<!-- Node5 -->
<g id="node5" class="node"><title>Node5</title>
<g id="a_node5"><a xlink:href="structboxxer_1_1ParameterValueError.html" target="_top" xlink:title="Parameter value is not valid. ">
<polygon fill="white" stroke="black" points="102.5,-0.5 102.5,-18.5 238.5,-18.5 238.5,-0.5 102.5,-0.5"/>
<text text-anchor="middle" x="170.5" y="-7.3" font-family="Helvetica,sans-Serif" font-size="9.00">boxxer::ParameterValueError</text>
</a>
</g>
</g>
<!-- Node1&#45;&gt;Node5 -->
<g id="edge4" class="edge"><title>Node1&#45;&gt;Node5</title>
<path fill="none" stroke="midnightblue" d="M57.2787,-50.1648C69.9395,-42.9611 85.964,-34.5102 101,-28.5 110.512,-24.698 121.056,-21.3642 130.964,-18.5945"/>
<polygon fill="midnightblue" stroke="midnightblue" points="55.2114,-47.318 48.3246,-55.3692 58.7291,-53.37 55.2114,-47.318"/>
</g>
</g>
</svg>
