<?xml version="1.0" encoding="UTF-8" standalone="no"?>
<!DOCTYPE svg PUBLIC "-//W3C//DTD SVG 1.1//EN"
 "http://www.w3.org/Graphics/SVG/1.1/DTD/svg11.dtd">
<!-- Generated by graphviz version 2.38.0 (20140413.2041)
 -->
<!-- Title: Maxima.h Pages: 1 -->
<svg width="124pt" height="82pt"
 viewBox="0.00 0.00 124.00 82.00" xmlns="http://www.w3.org/2000/svg" xmlns:xlink="http://www.w3.org/1999/xlink">
<g id="graph0" class="graph" transform="scale(1 1) rotate(0) translate(4 78)">
<title>Maxima.h</title>
<polygon fill="white" stroke="none" points="-4,4 -4,-78 120,-78 120,4 -4,4"/>
<!-- Node1 -->
<g id="node1" class="node"><title>Node1</title>
<polygon fill="#bfbfbf" stroke="black" points="26.5,-55.5 26.5,-73.5 82.5,-73.5 82.5,-55.5 26.5,-55.5"/>
<text text-anchor="middle" x="54.5" y="-62.3" font-family="Helvetica,sans-Serif" font-size="9.00">Maxima.h</text>
</g>
<!-- Node2 -->
<g id="node2" class="node"><title>Node2</title>
<polygon fill="white" stroke="#bfbfbf" points="0,-0.5 0,-18.5 43,-18.5 43,-0.5 0,-0.5"/>
<text text-anchor="middle" x="21.5" y="-7.3" font-family="Helvetica,sans-Serif" font-size="9.00">cstdint</text>
</g>
<!-- Node1&#45;&gt;Node2 -->
<g id="edge1" class="edge"><title>Node1&#45;&gt;Node2</title>
<path fill="none" stroke="midnightblue" d="M49.3438,-55.2188C44.6669,-47.7074 37.6333,-36.411 31.8057,-27.0515"/>
<polygon fill="midnightblue" stroke="midnightblue" points="34.7688,-25.1886 26.512,-18.5496 28.8265,-28.8885 34.7688,-25.1886"/>
</g>
<!-- Node3 -->
<g id="node3" class="node"><title>Node3</title>
<polygon fill="white" stroke="#bfbfbf" points="61,-0.5 61,-18.5 116,-18.5 116,-0.5 61,-0.5"/>
<text text-anchor="middle" x="88.5" y="-7.3" font-family="Helvetica,sans-Serif" font-size="9.00">armadillo</text>
</g>
<!-- Node1&#45;&gt;Node3 -->
<g id="edge2" class="edge"><title>Node1&#45;&gt;Node3</title>
<path fill="none" stroke="midnightblue" d="M59.8125,-55.2188C64.6311,-47.7074 71.8778,-36.411 77.882,-27.0515"/>
<polygon fill="midnightblue" stroke="midnightblue" points="80.8825,-28.8564 83.3361,-18.5496 74.9906,-25.0767 80.8825,-28.8564"/>
</g>
</g>
</svg>
