<?xml version="1.0" encoding="UTF-8" standalone="no"?>
<!DOCTYPE svg PUBLIC "-//W3C//DTD SVG 1.1//EN"
 "http://www.w3.org/Graphics/SVG/1.1/DTD/svg11.dtd">
<!-- Generated by graphviz version 2.38.0 (20140413.2041)
 -->
<!-- Title: boxxer::kernels::gaussFIR_1D Pages: 1 -->
<!--zoomable 739 -->
<svg id="main" version="1.1" xmlns="http://www.w3.org/2000/svg" xmlns:xlink="http://www.w3.org/1999/xlink" xml:space="preserve" onload="init(evt)">
<style type="text/css"><![CDATA[
.edge:hover path { stroke: red; }
.edge:hover polygon { stroke: red; fill: red; }
]]></style>
<script type="text/javascript"><![CDATA[
var edges = document.getElementsByTagName('g');
if (edges && edges.length) {
  for (var i=0;i<edges.length;i++) {
    if (edges[i].id.substr(0,4)=='edge') {
      edges[i].setAttribute('class','edge');
    }
  }
}
]]></script>
        <defs>
                <circle id="rim" cx="0" cy="0" r="7"/>
                <circle id="rim2" cx="0" cy="0" r="3.5"/>
                <g id="zoomPlus">
                        <use xlink:href="#rim" fill="#404040">
                                <set attributeName="fill" to="#808080" begin="zoomplus.mouseover" end="zoomplus.mouseout"/>
                        </use>
                        <path d="M-4,0h8M0,-4v8" fill="none" stroke="white" stroke-width="1.5" pointer-events="none"/>
                </g>
                <g id="zoomMin">
                        <use xlink:href="#rim" fill="#404040">
                                <set attributeName="fill" to="#808080" begin="zoomminus.mouseover" end="zoomminus.mouseout"/>
                        </use>
                        <path d="M-4,0h8" fill="none" stroke="white" stroke-width="1.5" pointer-events="none"/>
                </g>
                <g id="dirArrow">
                        <path fill="none" stroke="white" stroke-width="1.5" d="M0,-3.0v7 M-2.5,-0.5L0,-3.0L2.5,-0.5"/>
                </g>
               <g id="resetDef">
                       <use xlink:href="#rim2" fill="#404040">
                               <set attributeName="fill" to="#808080" begin="reset.mouseover" end="reset.mouseout"/>
                       </use>
               </g>
        </defs>

<script type="text/javascript">
var viewWidth = 328;
var viewHeight = 739;
var sectionId = 'dynsection-0';
</script>
<script xlink:href="svgpan.js"/>
<svg id="graph" class="graph">
<g id="viewport">
<title>boxxer::kernels::gaussFIR_1D</title>
<polygon fill="white" stroke="none" points="-4,4 -4,-735 324,-735 324,4 -4,4"/>
<!-- Node1 -->
<g id="node1" class="node"><title>Node1</title>
<polygon fill="#bfbfbf" stroke="black" points="0,-351.5 0,-369.5 140,-369.5 140,-351.5 0,-351.5"/>
<text text-anchor="middle" x="70" y="-358.3" font-family="Helvetica,sans-Serif" font-size="9.00">boxxer::kernels::gaussFIR_1D</text>
</g>
<!-- Node2 -->
<g id="node2" class="node"><title>Node2</title>
<g id="a_node2"><a xlink:href="namespaceboxxer_1_1kernels.html#a88f298ecd82bf9083fabbb2e8a29d4e6" target="_top" xlink:title="boxxer::kernels::gaussFIR\l_1D_arma">
<polygon fill="white" stroke="black" points="187,-702.5 187,-730.5 309,-730.5 309,-702.5 187,-702.5"/>
<text text-anchor="start" x="195" y="-719.3" font-family="Helvetica,sans-Serif" font-size="9.00">boxxer::kernels::gaussFIR</text>
<text text-anchor="middle" x="248" y="-709.3" font-family="Helvetica,sans-Serif" font-size="9.00">_1D_arma</text>
</a>
</g>
</g>
<!-- Node1&#45;&gt;Node2 -->
<g id="edge1" class="edge"><title>Node1&#45;&gt;Node2</title>
<path fill="none" stroke="midnightblue" d="M71.0202,-369.707C71.6243,-412.817 79.935,-596.68 176,-693.5 177.084,-694.592 178.22,-695.633 179.401,-696.624"/>
<polygon fill="midnightblue" stroke="midnightblue" points="177.571,-699.615 187.773,-702.474 181.58,-693.877 177.571,-699.615"/>
</g>
<!-- Node3 -->
<g id="node3" class="node"><title>Node3</title>
<g id="a_node3"><a xlink:href="namespaceboxxer_1_1kernels.html#ab3d9ad7bd61b25b9e856bd0284607e70" target="_top" xlink:title="boxxer::kernels::gaussFIR\l_1D_inplace">
<polygon fill="white" stroke="black" points="187,-655.5 187,-683.5 309,-683.5 309,-655.5 187,-655.5"/>
<text text-anchor="start" x="195" y="-672.3" font-family="Helvetica,sans-Serif" font-size="9.00">boxxer::kernels::gaussFIR</text>
<text text-anchor="middle" x="248" y="-662.3" font-family="Helvetica,sans-Serif" font-size="9.00">_1D_inplace</text>
</a>
</g>
</g>
<!-- Node1&#45;&gt;Node3 -->
<g id="edge2" class="edge"><title>Node1&#45;&gt;Node3</title>
<path fill="none" stroke="midnightblue" d="M71.5668,-369.719C74.4868,-409.099 91.1926,-564.903 176,-646.5 177.252,-647.704 178.567,-648.846 179.936,-649.927"/>
<polygon fill="midnightblue" stroke="midnightblue" points="178.027,-652.861 188.291,-655.491 181.907,-647.035 178.027,-652.861"/>
</g>
<!-- Node4 -->
<g id="node4" class="node"><title>Node4</title>
<g id="a_node4"><a xlink:href="namespaceboxxer_1_1kernels.html#ab2a257fbea765aacf09b558e38637479" target="_top" xlink:title="boxxer::kernels::gaussFIR\l_1D_inplace_arma">
<polygon fill="white" stroke="black" points="187,-608.5 187,-636.5 309,-636.5 309,-608.5 187,-608.5"/>
<text text-anchor="start" x="195" y="-625.3" font-family="Helvetica,sans-Serif" font-size="9.00">boxxer::kernels::gaussFIR</text>
<text text-anchor="middle" x="248" y="-615.3" font-family="Helvetica,sans-Serif" font-size="9.00">_1D_inplace_arma</text>
</a>
</g>
</g>
<!-- Node1&#45;&gt;Node4 -->
<g id="edge3" class="edge"><title>Node1&#45;&gt;Node4</title>
<path fill="none" stroke="midnightblue" d="M72.3322,-369.863C77.8761,-405.353 102.376,-532.938 176,-599.5 177.322,-600.695 178.706,-601.828 180.143,-602.902"/>
<polygon fill="midnightblue" stroke="midnightblue" points="178.549,-606.035 188.869,-608.432 182.297,-600.123 178.549,-606.035"/>
</g>
<!-- Node5 -->
<g id="node5" class="node"><title>Node5</title>
<g id="a_node5"><a xlink:href="namespaceboxxer_1_1kernels.html#af07e73b62933910e86eef6b393155c2c" target="_top" xlink:title="boxxer::kernels::gaussFIR\l_1D_small">
<polygon fill="white" stroke="black" points="187,-561.5 187,-589.5 309,-589.5 309,-561.5 187,-561.5"/>
<text text-anchor="start" x="195" y="-578.3" font-family="Helvetica,sans-Serif" font-size="9.00">boxxer::kernels::gaussFIR</text>
<text text-anchor="middle" x="248" y="-568.3" font-family="Helvetica,sans-Serif" font-size="9.00">_1D_small</text>
</a>
</g>
</g>
<!-- Node1&#45;&gt;Node5 -->
<g id="edge4" class="edge"><title>Node1&#45;&gt;Node5</title>
<path fill="none" stroke="midnightblue" d="M73.3766,-369.687C81.7908,-400.384 113.097,-500.391 176,-552.5 177.572,-553.802 179.218,-555.031 180.926,-556.19"/>
<polygon fill="midnightblue" stroke="midnightblue" points="179.492,-559.406 189.892,-561.432 183.025,-553.363 179.492,-559.406"/>
</g>
<!-- Node6 -->
<g id="node6" class="node"><title>Node6</title>
<g id="a_node6"><a xlink:href="namespaceboxxer_1_1kernels.html#aeee9d632ce320eb89c870a44c37efa65" target="_top" xlink:title="boxxer::kernels::gaussFIR_2Dx">
<polygon fill="white" stroke="black" points="176,-524.5 176,-542.5 320,-542.5 320,-524.5 176,-524.5"/>
<text text-anchor="middle" x="248" y="-531.3" font-family="Helvetica,sans-Serif" font-size="9.00">boxxer::kernels::gaussFIR_2Dx</text>
</a>
</g>
</g>
<!-- Node1&#45;&gt;Node6 -->
<g id="edge5" class="edge"><title>Node1&#45;&gt;Node6</title>
<path fill="none" stroke="midnightblue" d="M74.3886,-369.533C84.9329,-396.354 119.86,-476.109 176,-515.5 178.521,-517.269 181.201,-518.864 183.986,-520.303"/>
<polygon fill="midnightblue" stroke="midnightblue" points="182.618,-523.525 193.178,-524.386 185.46,-517.128 182.618,-523.525"/>
</g>
<!-- Node7 -->
<g id="node7" class="node"><title>Node7</title>
<g id="a_node7"><a xlink:href="namespaceboxxer_1_1kernels.html#a1da855e7008385fee013bd868d206040" target="_top" xlink:title="boxxer::kernels::gaussFIR\l_2Dx_arma">
<polygon fill="white" stroke="black" points="187,-477.5 187,-505.5 309,-505.5 309,-477.5 187,-477.5"/>
<text text-anchor="start" x="195" y="-494.3" font-family="Helvetica,sans-Serif" font-size="9.00">boxxer::kernels::gaussFIR</text>
<text text-anchor="middle" x="248" y="-484.3" font-family="Helvetica,sans-Serif" font-size="9.00">_2Dx_arma</text>
</a>
</g>
</g>
<!-- Node1&#45;&gt;Node7 -->
<g id="edge6" class="edge"><title>Node1&#45;&gt;Node7</title>
<path fill="none" stroke="midnightblue" d="M77.4993,-369.778C92.4823,-390.498 131.587,-440.879 176,-468.5 178.751,-470.211 181.641,-471.807 184.618,-473.294"/>
<polygon fill="midnightblue" stroke="midnightblue" points="183.201,-476.494 193.754,-477.436 186.092,-470.119 183.201,-476.494"/>
</g>
<!-- Node8 -->
<g id="node8" class="node"><title>Node8</title>
<g id="a_node8"><a xlink:href="namespaceboxxer_1_1kernels.html#a638bf7fa9900937a763f190c0a4499ae" target="_top" xlink:title="boxxer::kernels::gaussFIR\l_2Dx_small">
<polygon fill="white" stroke="black" points="187,-430.5 187,-458.5 309,-458.5 309,-430.5 187,-430.5"/>
<text text-anchor="start" x="195" y="-447.3" font-family="Helvetica,sans-Serif" font-size="9.00">boxxer::kernels::gaussFIR</text>
<text text-anchor="middle" x="248" y="-437.3" font-family="Helvetica,sans-Serif" font-size="9.00">_2Dx_small</text>
</a>
</g>
</g>
<!-- Node1&#45;&gt;Node8 -->
<g id="edge7" class="edge"><title>Node1&#45;&gt;Node8</title>
<path fill="none" stroke="midnightblue" d="M84.4306,-369.562C103.935,-382.424 141.539,-406.12 176,-421.5 180.285,-423.413 184.779,-425.244 189.337,-426.98"/>
<polygon fill="midnightblue" stroke="midnightblue" points="188.142,-430.27 198.736,-430.402 190.537,-423.692 188.142,-430.27"/>
</g>
<!-- Node9 -->
<g id="node9" class="node"><title>Node9</title>
<g id="a_node9"><a xlink:href="namespaceboxxer_1_1kernels.html#a6efa0d22ae67955f27c6d9ea30342104" target="_top" xlink:title="boxxer::kernels::gaussFIR_2Dy">
<polygon fill="white" stroke="black" points="176,-393.5 176,-411.5 320,-411.5 320,-393.5 176,-393.5"/>
<text text-anchor="middle" x="248" y="-400.3" font-family="Helvetica,sans-Serif" font-size="9.00">boxxer::kernels::gaussFIR_2Dy</text>
</a>
</g>
</g>
<!-- Node1&#45;&gt;Node9 -->
<g id="edge8" class="edge"><title>Node1&#45;&gt;Node9</title>
<path fill="none" stroke="midnightblue" d="M108.756,-369.51C135.23,-375.828 170.826,-384.322 199.268,-391.109"/>
<polygon fill="midnightblue" stroke="midnightblue" points="198.463,-394.516 209.003,-393.432 200.088,-387.707 198.463,-394.516"/>
</g>
<!-- Node10 -->
<g id="node10" class="node"><title>Node10</title>
<g id="a_node10"><a xlink:href="namespaceboxxer_1_1kernels.html#ae78e8767ae044f01e07e61a45220ffc5" target="_top" xlink:title="boxxer::kernels::gaussFIR\l_2Dy_colmajor">
<polygon fill="white" stroke="black" points="187,-346.5 187,-374.5 309,-374.5 309,-346.5 187,-346.5"/>
<text text-anchor="start" x="195" y="-363.3" font-family="Helvetica,sans-Serif" font-size="9.00">boxxer::kernels::gaussFIR</text>
<text text-anchor="middle" x="248" y="-353.3" font-family="Helvetica,sans-Serif" font-size="9.00">_2Dy_colmajor</text>
</a>
</g>
</g>
<!-- Node1&#45;&gt;Node10 -->
<g id="edge9" class="edge"><title>Node1&#45;&gt;Node10</title>
<path fill="none" stroke="midnightblue" d="M140.055,-360.5C152.168,-360.5 164.784,-360.5 176.924,-360.5"/>
<polygon fill="midnightblue" stroke="midnightblue" points="176.989,-364 186.989,-360.5 176.989,-357 176.989,-364"/>
</g>
<!-- Node11 -->
<g id="node11" class="node"><title>Node11</title>
<g id="a_node11"><a xlink:href="namespaceboxxer_1_1kernels.html#aa54bb3fea2d343c030528a87b7916293" target="_top" xlink:title="boxxer::kernels::gaussFIR\l_2Dy_rowmajor">
<polygon fill="white" stroke="black" points="187,-299.5 187,-327.5 309,-327.5 309,-299.5 187,-299.5"/>
<text text-anchor="start" x="195" y="-316.3" font-family="Helvetica,sans-Serif" font-size="9.00">boxxer::kernels::gaussFIR</text>
<text text-anchor="middle" x="248" y="-306.3" font-family="Helvetica,sans-Serif" font-size="9.00">_2Dy_rowmajor</text>
</a>
</g>
</g>
<!-- Node1&#45;&gt;Node11 -->
<g id="edge10" class="edge"><title>Node1&#45;&gt;Node11</title>
<path fill="none" stroke="midnightblue" d="M104.935,-351.438C127.532,-345.404 157.894,-337.295 184.748,-330.124"/>
<polygon fill="midnightblue" stroke="midnightblue" points="185.704,-333.492 194.462,-327.53 183.898,-326.729 185.704,-333.492"/>
</g>
<!-- Node12 -->
<g id="node12" class="node"><title>Node12</title>
<g id="a_node12"><a xlink:href="namespaceboxxer_1_1kernels.html#a49fd7ed785cfcea57b4c9e67d3113a69" target="_top" xlink:title="boxxer::kernels::gaussFIR\l_2Dy_small">
<polygon fill="white" stroke="black" points="187,-252.5 187,-280.5 309,-280.5 309,-252.5 187,-252.5"/>
<text text-anchor="start" x="195" y="-269.3" font-family="Helvetica,sans-Serif" font-size="9.00">boxxer::kernels::gaussFIR</text>
<text text-anchor="middle" x="248" y="-259.3" font-family="Helvetica,sans-Serif" font-size="9.00">_2Dy_small</text>
</a>
</g>
</g>
<!-- Node1&#45;&gt;Node12 -->
<g id="edge11" class="edge"><title>Node1&#45;&gt;Node12</title>
<path fill="none" stroke="midnightblue" d="M82.3565,-351.46C100.99,-336.976 139.628,-308.384 176,-290.5 180.554,-288.261 185.368,-286.147 190.257,-284.172"/>
<polygon fill="midnightblue" stroke="midnightblue" points="191.621,-287.398 199.704,-280.549 189.114,-280.862 191.621,-287.398"/>
</g>
<!-- Node13 -->
<g id="node13" class="node"><title>Node13</title>
<g id="a_node13"><a xlink:href="namespaceboxxer_1_1kernels.html#a74811c999b7d18b14dde0a042318fc06" target="_top" xlink:title="boxxer::kernels::gaussFIR_3Dx">
<polygon fill="white" stroke="black" points="176,-215.5 176,-233.5 320,-233.5 320,-215.5 176,-215.5"/>
<text text-anchor="middle" x="248" y="-222.3" font-family="Helvetica,sans-Serif" font-size="9.00">boxxer::kernels::gaussFIR_3Dx</text>
</a>
</g>
</g>
<!-- Node1&#45;&gt;Node13 -->
<g id="edge12" class="edge"><title>Node1&#45;&gt;Node13</title>
<path fill="none" stroke="midnightblue" d="M76.5661,-351.258C90.4236,-329.069 128.779,-272.48 176,-243.5 179.898,-241.108 184.097,-239.013 188.435,-237.179"/>
<polygon fill="midnightblue" stroke="midnightblue" points="189.952,-240.348 198.093,-233.567 187.5,-233.792 189.952,-240.348"/>
</g>
<!-- Node14 -->
<g id="node14" class="node"><title>Node14</title>
<g id="a_node14"><a xlink:href="namespaceboxxer_1_1kernels.html#af7d8fb262d8bde9c9907e141c3c5f55f" target="_top" xlink:title="boxxer::kernels::gaussFIR\l_3Dx_small">
<polygon fill="white" stroke="black" points="187,-168.5 187,-196.5 309,-196.5 309,-168.5 187,-168.5"/>
<text text-anchor="start" x="195" y="-185.3" font-family="Helvetica,sans-Serif" font-size="9.00">boxxer::kernels::gaussFIR</text>
<text text-anchor="middle" x="248" y="-175.3" font-family="Helvetica,sans-Serif" font-size="9.00">_3Dx_small</text>
</a>
</g>
</g>
<!-- Node1&#45;&gt;Node14 -->
<g id="edge13" class="edge"><title>Node1&#45;&gt;Node14</title>
<path fill="none" stroke="midnightblue" d="M74.7089,-351.349C85.8907,-324.892 121.869,-247.58 176,-206.5 178.46,-204.633 181.074,-202.906 183.793,-201.309"/>
<polygon fill="midnightblue" stroke="midnightblue" points="185.514,-204.359 192.77,-196.639 182.283,-198.149 185.514,-204.359"/>
</g>
<!-- Node15 -->
<g id="node15" class="node"><title>Node15</title>
<g id="a_node15"><a xlink:href="namespaceboxxer_1_1kernels.html#ac97f85b9211fcffa432b44a86d30c5df" target="_top" xlink:title="boxxer::kernels::gaussFIR_3Dy">
<polygon fill="white" stroke="black" points="176,-131.5 176,-149.5 320,-149.5 320,-131.5 176,-131.5"/>
<text text-anchor="middle" x="248" y="-138.3" font-family="Helvetica,sans-Serif" font-size="9.00">boxxer::kernels::gaussFIR_3Dy</text>
</a>
</g>
</g>
<!-- Node1&#45;&gt;Node15 -->
<g id="edge14" class="edge"><title>Node1&#45;&gt;Node15</title>
<path fill="none" stroke="midnightblue" d="M73.0284,-351.206C80.5091,-319.21 109.632,-212.67 176,-159.5 178.589,-157.426 181.385,-155.577 184.318,-153.929"/>
<polygon fill="midnightblue" stroke="midnightblue" points="185.946,-157.03 193.463,-149.563 182.931,-150.713 185.946,-157.03"/>
</g>
<!-- Node16 -->
<g id="node16" class="node"><title>Node16</title>
<g id="a_node16"><a xlink:href="namespaceboxxer_1_1kernels.html#a0256b4053077d18bbe2228402071555f" target="_top" xlink:title="boxxer::kernels::gaussFIR\l_3Dy_small">
<polygon fill="white" stroke="black" points="187,-84.5 187,-112.5 309,-112.5 309,-84.5 187,-84.5"/>
<text text-anchor="start" x="195" y="-101.3" font-family="Helvetica,sans-Serif" font-size="9.00">boxxer::kernels::gaussFIR</text>
<text text-anchor="middle" x="248" y="-91.3" font-family="Helvetica,sans-Serif" font-size="9.00">_3Dy_small</text>
</a>
</g>
</g>
<!-- Node1&#45;&gt;Node16 -->
<g id="edge15" class="edge"><title>Node1&#45;&gt;Node16</title>
<path fill="none" stroke="midnightblue" d="M72.3716,-351.204C78.0579,-315.966 103.005,-189.237 176,-122.5 177.717,-120.931 179.54,-119.463 181.446,-118.092"/>
<polygon fill="midnightblue" stroke="midnightblue" points="183.579,-120.889 190.264,-112.669 179.913,-114.926 183.579,-120.889"/>
</g>
<!-- Node17 -->
<g id="node17" class="node"><title>Node17</title>
<g id="a_node17"><a xlink:href="namespaceboxxer_1_1kernels.html#a404ef6e2324a0e4ff53e38ad7b07733e" target="_top" xlink:title="boxxer::kernels::gaussFIR_3Dz">
<polygon fill="white" stroke="black" points="176,-47.5 176,-65.5 320,-65.5 320,-47.5 176,-47.5"/>
<text text-anchor="middle" x="248" y="-54.3" font-family="Helvetica,sans-Serif" font-size="9.00">boxxer::kernels::gaussFIR_3Dz</text>
</a>
</g>
</g>
<!-- Node1&#45;&gt;Node17 -->
<g id="edge16" class="edge"><title>Node1&#45;&gt;Node17</title>
<path fill="none" stroke="midnightblue" d="M71.4543,-351.465C73.9309,-312.193 89.1361,-154.758 176,-75.5 177.979,-73.6939 180.112,-72.0562 182.359,-70.5715"/>
<polygon fill="midnightblue" stroke="midnightblue" points="184.415,-73.4365 191.513,-65.5706 181.059,-67.2935 184.415,-73.4365"/>
</g>
<!-- Node18 -->
<g id="node18" class="node"><title>Node18</title>
<g id="a_node18"><a xlink:href="namespaceboxxer_1_1kernels.html#a9a9201ede570bb2d77531d529f39bc99" target="_top" xlink:title="boxxer::kernels::gaussFIR\l_3Dz_small">
<polygon fill="white" stroke="black" points="187,-0.5 187,-28.5 309,-28.5 309,-0.5 187,-0.5"/>
<text text-anchor="start" x="195" y="-17.3" font-family="Helvetica,sans-Serif" font-size="9.00">boxxer::kernels::gaussFIR</text>
<text text-anchor="middle" x="248" y="-7.3" font-family="Helvetica,sans-Serif" font-size="9.00">_3Dz_small</text>
</a>
</g>
</g>
<!-- Node1&#45;&gt;Node18 -->
<g id="edge17" class="edge"><title>Node1&#45;&gt;Node18</title>
<path fill="none" stroke="midnightblue" d="M71.1612,-351.337C72.403,-309.227 83.1612,-132.343 176,-38.5 177.441,-37.0431 178.974,-35.6747 180.581,-34.3893"/>
<polygon fill="midnightblue" stroke="midnightblue" points="182.81,-37.1085 189.163,-28.6296 178.91,-31.2961 182.81,-37.1085"/>
</g>
</g>
</svg>
        <g id="navigator" transform="translate(0 0)" fill="#404254">
                <rect fill="#f2f5e9" fill-opacity="0.5" stroke="#606060" stroke-width=".5" x="0" y="0" width="60" height="60"/>
                <use id="zoomplus" xlink:href="#zoomPlus" x="17" y="9" onmousedown="handleZoom(evt,'in')"/>
                <use id="zoomminus" xlink:href="#zoomMin" x="42" y="9" onmousedown="handleZoom(evt,'out')"/>
                <use id="reset" xlink:href="#resetDef" x="30" y="36" onmousedown="handleReset()"/>
                <g id="arrowUp" xlink:href="#dirArrow" transform="translate(30 24)" onmousedown="handlePan(0,-1)">
                  <use xlink:href="#rim" fill="#404040">
                        <set attributeName="fill" to="#808080" begin="arrowUp.mouseover" end="arrowUp.mouseout"/>
                  </use>
                  <path fill="none" stroke="white" stroke-width="1.5" d="M0,-3.0v7 M-2.5,-0.5L0,-3.0L2.5,-0.5"/>
                </g>
                <g id="arrowRight" xlink:href="#dirArrow" transform="rotate(90) translate(36 -43)" onmousedown="handlePan(1,0)">
                  <use xlink:href="#rim" fill="#404040">
                        <set attributeName="fill" to="#808080" begin="arrowRight.mouseover" end="arrowRight.mouseout"/>
                  </use>
                  <path fill="none" stroke="white" stroke-width="1.5" d="M0,-3.0v7 M-2.5,-0.5L0,-3.0L2.5,-0.5"/>
                </g>
                <g id="arrowDown" xlink:href="#dirArrow" transform="rotate(180) translate(-30 -48)" onmousedown="handlePan(0,1)">
                  <use xlink:href="#rim" fill="#404040">
                        <set attributeName="fill" to="#808080" begin="arrowDown.mouseover" end="arrowDown.mouseout"/>
                  </use>
                  <path fill="none" stroke="white" stroke-width="1.5" d="M0,-3.0v7 M-2.5,-0.5L0,-3.0L2.5,-0.5"/>
                </g>
                <g id="arrowLeft" xlink:href="#dirArrow" transform="rotate(270) translate(-36 17)" onmousedown="handlePan(-1,0)">
                  <use xlink:href="#rim" fill="#404040">
                        <set attributeName="fill" to="#808080" begin="arrowLeft.mouseover" end="arrowLeft.mouseout"/>
                  </use>
                  <path fill="none" stroke="white" stroke-width="1.5" d="M0,-3.0v7 M-2.5,-0.5L0,-3.0L2.5,-0.5"/>
                </g>
        </g>
        <svg viewBox="0 0 15 15" width="100%" height="30px" preserveAspectRatio="xMaxYMin meet">
         <g id="arrow_out" transform="scale(0.3 0.3)">
          <a xlink:href="namespaceboxxer_1_1kernels_adf021edf274fc54862b2f9546a47301d_cgraph_org.svg" target="_base">
           <rect id="button" ry="5" rx="5" y="6" x="6" height="38" width="38"
                fill="#f2f5e9" fill-opacity="0.5" stroke="#606060" stroke-width="1.0"/>
           <path id="arrow"
             d="M 11.500037,31.436501 C 11.940474,20.09759 22.043105,11.32322 32.158766,21.979434 L 37.068811,17.246167 C 37.068811,17.246167 37.088388,32 37.088388,32 L 22.160133,31.978069 C 22.160133,31.978069 26.997745,27.140456 26.997745,27.140456 C 18.528582,18.264221 13.291696,25.230495 11.500037,31.436501 z"
             style="fill:#404040;"/>
          </a>
         </g>
        </svg>
</svg>
