<?xml version="1.0" encoding="UTF-8" standalone="no"?>
<!DOCTYPE svg PUBLIC "-//W3C//DTD SVG 1.1//EN"
 "http://www.w3.org/Graphics/SVG/1.1/DTD/svg11.dtd">
<!-- Generated by graphviz version 2.38.0 (20140413.2041)
 -->
<!-- Title: boxxer::NumericalError Pages: 1 -->
<svg width="119pt" height="82pt"
 viewBox="0.00 0.00 119.00 82.00" xmlns="http://www.w3.org/2000/svg" xmlns:xlink="http://www.w3.org/1999/xlink">
<g id="graph0" class="graph" transform="scale(1 1) rotate(0) translate(4 78)">
<title>boxxer::NumericalError</title>
<polygon fill="white" stroke="none" points="-4,4 -4,-78 115,-78 115,4 -4,4"/>
<!-- Node1 -->
<g id="node1" class="node"><title>Node1</title>
<polygon fill="#bfbfbf" stroke="black" points="-7.10543e-15,-0.5 -7.10543e-15,-18.5 111,-18.5 111,-0.5 -7.10543e-15,-0.5"/>
<text text-anchor="middle" x="55.5" y="-7.3" font-family="Helvetica,sans-Serif" font-size="9.00">boxxer::NumericalError</text>
</g>
<!-- Node2 -->
<g id="node2" class="node"><title>Node2</title>
<polygon fill="white" stroke="#bfbfbf" points="23,-55.5 23,-73.5 88,-73.5 88,-55.5 23,-55.5"/>
<text text-anchor="middle" x="55.5" y="-62.3" font-family="Helvetica,sans-Serif" font-size="9.00">BoxxerError</text>
</g>
<!-- Node2&#45;&gt;Node1 -->
<g id="edge1" class="edge"><title>Node2&#45;&gt;Node1</title>
<path fill="none" stroke="midnightblue" d="M55.5,-45.1746C55.5,-36.0945 55.5,-25.5949 55.5,-18.5496"/>
<polygon fill="midnightblue" stroke="midnightblue" points="52.0001,-45.2187 55.5,-55.2188 59.0001,-45.2188 52.0001,-45.2187"/>
</g>
</g>
</svg>
